<?xml version="1.0" encoding="UTF-8" standalone="no"?>
<!DOCTYPE svg PUBLIC "-//W3C//DTD SVG 1.1//EN" "http://www.w3.org/Graphics/SVG/1.1/DTD/svg11.dtd">
<!-- Created with Vectornator (http://vectornator.io/) -->
<svg height="100%" stroke-miterlimit="10" style="fill-rule:nonzero;clip-rule:evenodd;stroke-linecap:round;stroke-linejoin:round;" version="1.1" viewBox="0 0 1024 1024" width="100%" xml:space="preserve" xmlns="http://www.w3.org/2000/svg" xmlns:vectornator="http://vectornator.io" xmlns:xlink="http://www.w3.org/1999/xlink">
<defs/>
<g id="Sans-titre" vectornator:layerName="Sans titre">
<g opacity="1" vectornator:layerName="g">
<path d="M540.755 195.82C539.155 196.82 536.755 201.92 535.855 206.02C535.055 210.02 535.755 207.72 522.355 249.02C516.655 266.32 511.855 282.32 511.655 284.52C511.255 287.52 511.655 289.12 513.155 290.92C515.755 294.22 521.355 294.82 547.855 294.92C566.855 295.02 569.155 294.82 572.055 293.12C577.855 289.52 577.655 288.72 563.955 247.82C557.055 227.32 550.755 207.62 549.855 204.12C547.855 196.22 544.555 193.22 540.755 195.82ZM549.155 249.32C552.055 257.72 555.555 267.82 556.755 271.72L559.155 279.02L543.755 279.02C533.555 279.02 528.355 278.62 528.355 277.92C528.355 277.42 530.555 269.82 533.355 261.22C541.055 236.82 542.455 232.82 543.155 233.52C543.555 233.82 546.155 240.92 549.155 249.32Z" fill="#000000" fill-rule="nonzero" opacity="1" stroke="none" vectornator:layerName="path"/>
<path d="M630.155 284.12C628.655 285.02 626.755 289.12 621.955 302.52C618.355 312.62 613.155 326.02 608.455 337.72L604.355 347.82L605.055 365.42L605.655 383.02L599.555 383.02L593.355 383.02L593.355 350.22L593.355 317.32L591.055 315.22C586.255 310.62 579.355 313.82 579.355 320.52C579.355 323.62 579.055 324.02 576.855 324.02C574.655 324.02 574.355 323.62 574.355 320.72C574.355 315.92 571.955 313.02 567.955 313.02C563.855 313.02 561.355 315.62 561.355 319.82C561.355 322.32 560.955 323.02 559.355 323.02C557.955 323.02 557.355 322.32 557.355 320.62C557.355 316.72 556.255 314.92 553.055 313.52C549.255 311.92 546.055 313.12 544.455 316.72C543.755 318.32 543.355 329.92 543.355 351.62L543.355 384.12L536.655 383.82L529.855 383.52L529.355 351.82C528.855 321.62 528.755 320.02 526.855 318.62C521.755 314.72 517.155 317.62 516.355 325.12L515.855 330.52L512.155 330.82L508.355 331.12L508.355 326.72C508.355 321.12 505.455 317.02 501.455 317.02C497.255 317.02 495.355 319.82 495.355 325.82L495.355 331.02L491.855 331.02C488.355 331.02 488.355 331.02 488.355 326.52C488.355 320.92 485.155 317.02 480.455 317.02C474.155 317.02 474.355 314.92 474.355 383.72L474.355 446.02L470.355 446.02L466.355 446.02L466.355 424.52C466.355 404.32 466.255 402.92 464.355 401.02C459.855 396.52 453.355 400.42 453.355 407.72C453.355 411.22 453.055 411.82 450.855 412.22C447.655 412.92 447.355 412.42 447.355 407.82C447.355 405.62 446.955 403.02 446.355 402.02C444.955 399.42 440.655 398.62 437.755 400.52C435.755 401.82 435.355 402.92 435.355 407.02C435.355 411.92 435.255 412.02 432.355 412.02C429.455 412.02 429.355 411.82 429.355 407.72C429.355 400.02 422.855 396.42 417.755 401.52L415.355 403.92L416.055 445.02L416.655 486.02L411.055 486.02L405.355 486.02L405.355 463.02C405.355 448.12 404.955 439.22 404.255 437.62C402.655 434.22 398.255 432.42 395.155 434.12C391.955 435.82 391.355 436.92 391.355 441.22C391.355 445.02 391.355 445.02 387.355 445.02L383.355 445.02L383.355 441.02C383.355 434.32 378.455 431.12 373.555 434.62C371.855 435.82 371.355 437.12 371.355 440.62C371.355 445.02 371.355 445.02 367.855 445.02C365.255 445.02 364.355 444.62 364.255 443.22C363.955 437.02 361.455 434.02 356.355 434.02C348.955 434.02 349.355 430.62 349.355 496.92C349.355 560.62 349.355 560.12 344.155 562.72C339.055 565.32 325.555 570.12 319.355 571.62C318.555 571.82 313.355 573.32 307.855 575.02C302.355 576.62 296.555 578.22 294.955 578.52C293.355 578.82 291.655 579.32 291.155 579.62C290.755 579.92 289.355 580.32 288.255 580.52C284.355 581.32 265.855 586.82 247.855 592.72C228.355 599.02 206.455 611.02 196.655 620.82C178.955 638.52 186.055 659.52 212.355 667.42C227.655 672.02 225.255 672.02 429.855 672.02C627.955 672.02 643.555 671.72 666.855 668.02C685.255 665.02 694.055 661.62 699.255 655.32C704.155 649.42 703.155 642.92 696.655 636.92C692.755 633.22 689.155 631.52 680.855 629.42C677.355 628.52 661.955 625.42 651.855 623.52C636.655 620.62 624.955 616.62 625.655 614.62C627.755 608.32 668.155 600.72 713.355 598.02C723.555 597.42 740.655 596.02 751.355 594.92C763.255 593.62 778.455 592.72 790.355 592.62L809.855 592.52L826.855 597.42C836.255 600.02 849.455 604.02 856.355 606.22C892.355 617.92 921.355 638.62 921.355 652.62C921.355 654.22 920.255 657.52 918.855 659.92C915.855 665.02 915.655 668.12 918.155 670.32C922.455 674.22 929.655 671.22 933.255 664.22C940.955 648.92 931.755 629.82 909.355 614.82C882.055 596.52 846.755 585.42 712.855 553.12C699.155 549.82 686.755 546.92 685.355 546.62C680.655 545.82 659.855 540.82 655.355 539.52C650.455 538.02 642.155 536.02 629.155 533.12C608.755 528.42 592.555 523.72 586.155 520.42C584.755 519.72 582.055 517.32 580.355 515.32L577.155 511.52L577.655 499.02C578.355 484.32 577.455 481.02 572.055 476.62C568.655 473.92 567.355 473.52 561.955 473.52C557.055 473.52 555.255 474.02 552.855 475.82C547.855 479.72 546.455 483.52 546.355 493.12C546.355 501.72 546.355 501.82 542.955 504.82C541.055 506.42 538.055 508.22 536.155 508.82C529.855 510.72 518.855 513.02 509.055 514.42C503.755 515.32 498.955 516.12 498.555 516.32C498.155 516.62 495.655 517.12 492.855 517.42C463.355 521.22 434.055 526.72 422.655 530.52C404.555 536.62 398.255 545.32 403.955 556.32C406.955 562.12 416.055 568.12 425.855 570.92C431.055 572.42 454.855 577.72 459.355 578.42C481.855 581.82 510.355 586.92 515.855 588.42C518.655 589.22 522.455 590.12 524.355 590.42C528.255 591.02 544.355 596.12 548.655 598.12C550.155 598.82 551.255 599.82 551.055 600.42C550.155 603.22 520.155 608.42 498.855 609.42C474.155 610.62 427.255 613.62 415.855 614.62C407.855 615.42 392.355 618.52 384.455 621.12C372.155 625.02 365.855 629.32 362.955 635.92C360.255 641.82 361.455 646.42 367.255 652.22L372.055 657.02L305.255 657.02C265.855 657.02 235.255 656.62 230.655 656.02C210.855 653.42 202.355 648.62 202.355 640.02C202.355 627.12 234.555 610.02 285.355 596.02C291.655 594.22 300.055 591.92 303.855 590.82C307.755 589.72 312.455 588.42 314.355 588.02C332.055 583.72 348.755 577.52 355.455 572.62C364.155 566.22 363.855 568.42 364.155 511.22L364.455 461.02L377.855 461.02L391.355 461.02L391.355 478.22C391.455 496.32 391.655 497.52 396.055 499.82C399.555 501.72 423.855 501.42 426.855 499.42C430.955 496.72 431.355 493.52 431.355 459.92L431.355 428.02L441.355 428.02L451.355 428.02L451.355 441.12C451.355 459.82 452.855 461.92 466.155 462.02L474.355 462.02L474.355 480.02C474.355 497.92 474.355 498.12 476.855 500.52C478.155 501.92 480.455 503.02 481.855 503.02C483.255 503.02 485.555 501.92 486.855 500.52L489.355 498.12L489.355 422.52L489.355 347.02L502.355 347.02L515.355 347.02L515.355 369.62C515.355 388.92 515.555 392.62 517.055 395.02C517.955 396.62 519.655 398.12 520.755 398.42C524.355 399.42 550.055 399.02 552.855 398.02C557.755 396.12 558.355 392.62 558.355 364.52L558.355 338.92L568.155 339.22L577.855 339.52L578.355 366.72C578.955 401.52 577.355 399.02 598.855 399.02C613.855 399.02 614.055 399.02 616.455 396.42C618.755 394.02 618.855 393.12 619.355 377.22L619.855 360.52L633.355 360.52L646.855 360.52L647.155 432.92L647.355 505.42L649.555 507.72C650.855 509.02 652.855 510.02 654.555 510.02C657.655 510.02 661.255 507.02 661.455 504.22C661.555 503.32 661.555 486.42 661.355 466.72L661.155 431.02L669.955 431.02C683.655 430.92 684.355 429.82 684.355 408.02L684.355 393.22L691.355 392.82L698.355 392.52L698.355 456.72L698.355 521.02L701.255 524.22L704.155 527.52L717.555 527.22C731.955 526.82 734.655 526.02 736.355 521.42C736.955 520.02 737.355 511.22 737.355 501.92L737.355 485.02L744.355 485.02L751.355 485.02L751.355 514.92C751.355 543.32 751.455 544.82 753.355 547.32C756.055 550.72 758.655 551.42 762.155 549.62C767.355 546.92 767.555 545.72 767.155 501.72C766.855 463.52 766.755 461.12 764.955 459.12C762.755 456.72 757.755 456.32 754.955 458.32C754.055 459.02 752.955 461.52 752.655 463.82C751.855 469.62 749.355 469.52 749.355 463.72C749.355 458.72 748.055 457.02 744.255 457.02C740.655 457.02 738.955 459.32 739.155 464.02C739.355 467.42 739.055 468.02 737.355 468.02C735.655 468.02 735.355 467.32 735.355 464.12C735.355 461.12 734.755 459.72 733.155 458.62C730.055 456.42 725.755 456.62 723.355 459.02C721.455 460.92 721.355 462.32 721.355 486.02L721.355 511.02L717.855 511.02L714.355 511.02L714.355 441.02C714.355 391.92 714.055 370.42 713.255 368.72C711.755 365.52 708.055 363.82 705.055 364.92C701.855 366.22 700.555 368.02 700.155 372.02C699.755 376.72 697.955 376.12 697.255 370.92C695.955 361.62 686.055 361.62 685.955 370.92C685.855 373.52 685.355 375.02 684.655 375.02C683.955 375.02 683.355 374.12 683.355 372.92C683.355 371.32 681.955 367.62 680.855 366.22C680.755 366.12 679.255 365.52 677.555 365.02C675.055 364.32 673.955 364.62 671.855 366.22L669.355 368.12L669.355 391.62L669.355 415.12L665.655 414.82L661.855 414.52L661.355 379.52C660.855 346.12 660.755 344.32 658.755 340.52C656.755 336.92 650.155 320.82 641.355 298.52C635.755 284.12 634.055 281.92 630.155 284.12ZM638.755 331.92C641.855 338.52 644.355 344.12 644.355 344.42C644.355 344.72 639.255 345.02 632.955 345.02L621.555 345.02L626.655 332.52C629.355 325.62 631.955 320.02 632.355 320.02C632.755 320.02 635.555 325.42 638.755 331.92ZM565.855 521.62C572.255 531.62 582.855 536.82 611.355 543.82C639.155 550.72 681.755 561.02 696.855 564.52C705.655 566.52 721.755 570.42 732.655 573.12C743.555 575.82 753.655 578.02 755.055 578.02C759.755 578.02 756.155 579.82 750.355 580.42C729.455 582.62 722.355 583.22 701.855 584.52C680.955 585.82 656.355 588.72 647.355 591.02C645.455 591.52 642.555 592.12 641.055 592.42C625.355 595.12 611.855 603.02 609.255 610.82C606.855 618.22 613.855 627.82 624.655 631.82C627.655 633.02 638.155 635.52 648.055 637.62C675.555 643.22 687.155 646.62 685.255 648.42C685.055 648.62 681.355 649.82 677.055 650.92C669.955 652.72 661.455 653.92 641.855 655.62C638.055 655.92 593.655 656.42 543.355 656.72C465.555 657.12 448.855 656.92 431.855 655.62C420.855 654.72 410.255 653.62 408.355 653.02C406.455 652.52 403.655 651.92 402.155 651.62C394.655 650.32 382.155 645.72 379.855 643.42C378.455 642.02 377.355 640.72 377.355 640.52C377.355 639.42 386.255 635.72 393.155 633.92C408.655 629.92 425.855 628.02 462.355 626.02C542.055 621.72 560.055 618.12 567.055 604.62C570.055 598.82 565.855 590.62 556.955 585.62C546.855 579.82 511.955 571.72 466.355 564.62C459.355 563.52 437.755 558.92 432.355 557.42C426.455 555.72 417.355 551.22 417.355 549.92C417.355 548.42 424.755 544.92 432.155 543.02C442.255 540.32 468.455 535.42 485.355 533.02C532.655 526.32 550.555 521.02 558.055 511.52L560.855 508.02L561.655 512.22C562.155 514.52 564.055 518.72 565.855 521.62Z" fill="#000000" fill-rule="nonzero" opacity="1" stroke="none" vectornator:layerName="path"/>
<path d="M246.615 698.733C239.715 701.033 236.615 703.133 231.315 708.933C207.515 734.933 230.215 777.133 263.915 769.433C269.415 768.133 276.015 764.033 277.015 761.133C278.115 758.233 275.815 753.633 272.515 752.433C270.615 751.633 269.015 751.933 265.915 753.533C262.615 755.233 260.415 755.533 255.515 755.233C247.315 754.733 242.315 751.433 238.715 744.333C232.415 731.633 237.815 717.033 250.315 712.833C255.615 711.133 259.215 711.533 265.815 714.633C269.115 716.133 270.415 716.333 272.015 715.433C276.515 713.133 277.415 706.933 273.915 703.733C268.415 698.833 254.215 696.233 246.615 698.733Z" fill="#000000" fill-rule="nonzero" opacity="1" stroke="none" vectornator:layerName="path"/>
<path d="M311.191 698.238C309.291 699.838 302.791 714.238 286.491 753.438C282.491 763.238 282.291 764.038 283.691 766.638C285.491 770.238 289.491 771.338 292.991 769.438C294.391 768.638 296.691 765.638 298.091 762.738L300.591 757.538L315.391 757.538L330.191 757.538L332.191 762.238C334.591 767.838 336.491 769.438 340.791 769.538C344.091 769.538 346.591 767.838 347.491 764.738C348.291 762.438 321.691 700.638 318.991 698.238C317.791 697.338 316.091 696.538 315.091 696.538C314.091 696.538 312.391 697.338 311.191 698.238ZM319.991 732.238C322.391 737.638 324.491 742.638 324.791 743.238C325.191 744.238 322.991 744.538 315.691 744.538C310.391 744.538 306.091 744.338 306.091 744.038C306.091 743.738 307.891 739.338 310.091 734.138C312.291 729.038 314.091 724.238 314.091 723.638C314.091 720.438 316.191 723.538 319.991 732.238Z" fill="#000000" fill-rule="nonzero" opacity="1" stroke="none" vectornator:layerName="path"/>
<path d="M446.83 697.922C428.73 702.222 416.63 723.822 421.83 742.822C426.53 760.022 440.63 770.522 457.33 769.322C472.43 768.122 482.43 758.622 474.83 752.622C471.53 750.022 470.03 750.022 464.93 752.522C457.63 756.022 447.43 754.622 441.53 749.222C438.23 746.122 434.43 737.722 434.43 733.322C434.43 729.022 436.83 722.222 439.63 718.522C444.93 711.622 455.43 709.522 464.33 713.522C469.93 716.122 471.63 716.022 474.23 713.222C476.63 710.622 477.03 706.822 475.13 704.522C470.33 698.622 457.23 695.522 446.83 697.922Z" fill="#000000" fill-rule="nonzero" opacity="1" stroke="none" vectornator:layerName="path"/>
<path d="M516.028 698.811C514.828 699.811 511.528 706.411 508.528 713.611C505.528 720.711 499.728 734.411 495.528 743.911C485.928 765.711 485.628 770.111 493.928 770.111C498.028 770.111 500.028 768.411 502.328 762.911C503.228 761.011 504.628 759.111 505.428 758.711C506.328 758.411 513.328 758.111 520.928 758.111L534.728 758.111L537.828 763.611C539.628 766.711 542.028 769.611 543.228 770.211C546.228 771.611 550.628 769.911 552.028 766.711C553.028 764.611 552.228 762.211 546.128 748.411C539.728 733.811 535.828 724.911 528.428 706.811C524.528 697.511 520.728 695.011 516.028 698.811ZM524.928 734.111C527.128 739.211 528.928 743.811 528.928 744.311C528.928 744.711 524.628 745.111 519.428 745.111L510.028 745.111L513.328 737.811C515.128 733.711 517.228 728.711 517.928 726.711C518.628 724.511 519.528 723.311 520.028 723.811C520.528 724.311 522.728 728.911 524.928 734.111Z" fill="#000000" fill-rule="nonzero" opacity="1" stroke="none" vectornator:layerName="path"/>
<path d="M574.613 698.765C564.113 702.865 558.813 709.865 559.013 719.065C559.213 730.765 564.213 735.965 579.613 740.465C589.613 743.365 593.113 745.665 593.113 749.465C593.113 753.065 590.013 755.365 584.113 756.165C581.013 756.565 578.313 756.065 572.913 753.865L565.913 751.065L562.213 753.065C557.013 755.865 557.113 759.765 562.713 763.965C574.413 772.965 593.213 772.365 602.313 762.765C609.913 754.865 609.913 743.265 602.313 735.665C599.413 732.765 596.413 731.265 588.313 728.565C582.713 726.765 577.013 724.365 575.613 723.265C570.613 719.365 573.613 712.765 580.913 711.765C584.213 711.365 586.513 711.765 591.313 713.965C596.913 716.465 597.713 716.665 600.013 715.365C601.513 714.565 603.213 712.665 603.913 711.165C605.713 707.465 603.413 704.265 596.513 700.865C590.213 697.765 579.613 696.765 574.613 698.765Z" fill="#000000" fill-rule="nonzero" opacity="1" stroke="none" vectornator:layerName="path"/>
<path d="M632.278 698.057C627.178 699.257 620.478 704.857 617.778 710.257C616.078 713.457 615.778 715.657 616.078 720.657C616.778 731.057 620.378 734.457 636.478 739.857C644.578 742.557 647.678 744.157 649.178 746.157C651.078 748.657 651.078 748.957 649.578 751.357C646.278 756.357 636.978 757.057 628.778 752.957C626.678 751.857 623.878 750.957 622.578 750.957C619.578 750.957 614.878 755.157 614.878 757.957C614.878 760.557 622.278 765.857 629.178 768.157C650.978 775.257 671.378 758.657 662.978 740.457C660.178 734.257 657.078 732.157 644.478 727.657C635.178 724.357 632.378 722.857 631.078 720.757C629.578 718.157 629.578 717.857 631.478 715.257C634.778 710.757 640.078 710.157 647.678 713.357C651.078 714.757 654.478 715.957 655.278 715.957C657.178 715.957 661.878 710.257 661.878 707.957C661.878 705.057 655.378 700.457 648.878 698.657C642.378 696.757 638.578 696.657 632.278 698.057Z" fill="#000000" fill-rule="nonzero" opacity="1" stroke="none" vectornator:layerName="path"/>
<path d="M694.187 698.567C684.687 701.667 676.887 710.067 673.387 720.967C671.087 728.267 671.787 742.767 674.787 749.567C680.587 762.367 692.587 770.767 703.987 769.967C710.587 769.467 718.987 765.767 723.787 761.067C725.487 759.367 728.387 754.967 730.187 751.367C732.987 745.767 733.587 743.367 733.787 736.067C734.387 722.567 731.687 714.967 723.087 705.867C716.387 698.767 703.587 695.567 694.187 698.567ZM709.487 713.867C717.087 717.467 721.387 728.567 719.187 738.967C717.687 746.067 714.587 750.767 709.887 753.167C698.087 759.267 686.587 749.867 686.087 733.767C685.587 718.067 697.387 708.067 709.487 713.867Z" fill="#000000" fill-rule="nonzero" opacity="1" stroke="none" vectornator:layerName="path"/>
<path d="M749.137 698.05C747.637 699.75 747.437 703.65 747.437 732.95C747.437 764.75 747.537 766.05 749.437 767.75C752.037 770.15 757.037 770.05 759.437 767.65C761.237 765.95 761.537 763.75 762.037 748.75C762.337 739.35 762.737 731.65 762.837 731.45C763.037 731.35 764.837 733.85 766.937 736.95C772.837 745.95 785.537 763.45 788.337 766.45C790.237 768.55 791.737 769.25 794.637 769.25C801.537 769.25 801.537 769.05 801.237 731.75C800.937 700.75 800.837 699.05 799.037 697.65C796.237 695.65 792.137 695.95 789.337 698.15C786.937 700.05 786.937 700.45 786.737 718.35C786.637 728.45 786.237 736.85 785.737 736.95C785.337 737.05 783.037 734.45 780.737 730.95C759.237 698.75 757.237 696.25 753.037 696.25C751.737 696.25 750.037 697.05 749.137 698.05Z" fill="#000000" fill-rule="nonzero" opacity="1" stroke="none" vectornator:layerName="path"/>
<path d="M876.082 769.608L896.19 769.608C914.417 769.608 916.414 769.408 918.661 767.608C923.78 763.508 922.906 757.508 916.913 755.608C915.29 755.108 908.549 755.008 901.932 755.308L889.948 755.908L889.948 748.208L889.948 740.608L901.183 740.608C916.539 740.608 921.158 738.608 921.158 732.208C921.158 727.808 917.787 726.708 903.306 726.508L889.948 726.408L889.948 718.508L889.948 710.608L903.431 710.608C915.29 710.608 917.288 710.408 919.66 708.608C923.155 706.008 923.155 703.608 919.785 700.208L917.288 697.608L896.315 697.608C877.589 697.608 877.83 698.501 876.082 700.101C874.21 701.701 876.082 704.947 876.082 719.947C876.082 729.647 876.082 769.608 876.082 769.608Z" fill="#000000" fill-rule="nonzero" opacity="1" stroke="none" vectornator:layerName="path"/>
<path d="M361.686 698.706C360.286 700.006 360.086 704.306 359.886 727.906C359.486 768.806 359.286 765.006 362.486 767.706C365.786 770.606 368.086 770.706 371.186 768.206C373.286 766.506 373.686 765.206 374.086 756.906L374.586 747.606L378.686 747.306L382.786 747.006L389.286 756.806C392.886 762.206 396.486 767.206 397.486 768.006C399.786 769.906 404.886 769.606 407.186 767.506C410.286 764.706 409.486 761.106 403.586 752.406C398.686 745.106 398.286 744.206 399.986 743.606C403.586 742.506 407.186 738.906 409.686 733.906C414.686 723.906 411.786 710.106 403.086 703.106C397.086 698.406 391.486 697.106 376.586 697.106C365.786 697.106 362.886 697.406 361.686 698.706ZM390.086 712.606C394.386 714.806 397.086 718.906 397.086 723.006C397.086 730.406 392.386 733.406 381.486 732.906L374.586 732.606L374.286 723.206C374.186 718.006 374.186 713.206 374.486 712.406C375.186 710.606 386.386 710.706 390.086 712.606Z" fill="#000000" fill-rule="nonzero" opacity="1" stroke="none" vectornator:layerName="path"/>
<path d="M482.855 789.02C481.155 790.92 481.255 791.52 486.355 807.72C492.755 828.02 493.355 829.22 497.655 828.82C501.255 828.52 503.155 825.42 505.355 816.22C506.055 813.22 506.955 811.22 507.355 811.72C507.755 812.12 509.255 816.02 510.755 820.22C513.455 827.82 514.555 829.02 518.755 829.02C520.455 829.02 521.455 828.02 522.655 825.22C524.655 820.72 533.355 793.22 533.355 791.42C533.355 789.52 530.455 787.02 528.355 787.02C525.655 787.02 522.455 790.72 521.755 794.72C520.555 801.12 517.555 809.52 516.955 808.02C516.655 807.22 515.755 803.62 514.855 800.02C512.055 788.52 510.855 786.72 506.755 787.52C505.655 787.72 504.555 787.92 504.255 787.92C503.055 788.12 501.055 794.92 498.655 806.22C497.955 809.72 496.355 809.92 496.355 806.52C496.355 802.62 491.655 790.62 489.255 788.72C486.555 786.52 485.055 786.52 482.855 789.02Z" fill="#000000" fill-rule="nonzero" opacity="1" stroke="none" vectornator:layerName="path"/>
<path d="M546.055 788.82C544.555 790.42 544.355 793.32 544.355 808.62C544.355 821.32 544.755 827.02 545.555 827.82C547.255 829.52 570.455 829.52 572.155 827.82C574.055 825.92 573.655 821.22 571.455 820.02C570.355 819.52 566.055 819.02 561.955 819.02L554.355 819.02L554.355 816.02L554.355 813.02L560.755 813.02C568.955 813.02 571.755 810.72 569.755 805.62C569.255 804.32 567.555 804.02 561.655 804.02L554.255 804.02L554.555 800.72L554.855 797.52L562.855 797.22C571.455 796.92 573.355 796.02 573.355 792.42C573.355 788.22 569.955 787.02 558.255 787.02C549.255 787.02 547.455 787.32 546.055 788.82Z" fill="#000000" fill-rule="nonzero" opacity="1" stroke="none" vectornator:layerName="path"/>
<path d="M586.755 788.52C585.555 789.32 585.355 793.12 585.555 809.02L585.855 828.52L597.555 828.82C610.755 829.12 614.255 828.12 616.855 823.02C618.855 819.12 618.755 816.42 616.255 811.32C614.855 808.32 614.455 806.62 615.155 805.72C618.555 801.62 616.355 792.12 611.455 789.62C608.155 787.92 588.755 787.02 586.755 788.52ZM606.855 800.52C606.855 803.52 606.755 803.52 601.155 803.82L595.355 804.12L595.355 800.52L595.355 796.92L601.155 797.22C606.755 797.52 606.855 797.52 606.855 800.52ZM608.355 815.42C608.355 818.82 606.355 820.02 600.555 819.92L595.355 819.72L595.355 816.42L595.355 813.02L601.855 813.02C608.055 813.02 608.355 813.12 608.355 815.42Z" fill="#000000" fill-rule="nonzero" opacity="1" stroke="none" vectornator:layerName="path"/>
<path d="M436.055 803.82C433.955 806.12 433.955 807.92 435.955 810.82C437.355 812.92 438.255 813.02 448.855 813.02C461.355 813.02 463.355 812.22 463.355 807.12C463.355 802.52 461.955 802.02 449.355 802.02C439.255 802.02 437.455 802.32 436.055 803.82Z" fill="#000000" fill-rule="nonzero" opacity="1" stroke="none" vectornator:layerName="path"/>
<path d="M644.055 803.82C641.855 806.22 641.955 809.32 644.155 811.32C645.655 812.72 648.255 813.02 658.055 813.02C671.255 813.02 673.355 812.12 673.355 806.72C673.355 802.82 670.755 802.02 657.555 802.02C647.355 802.02 645.455 802.32 644.055 803.82Z" fill="#000000" fill-rule="nonzero" opacity="1" stroke="none" vectornator:layerName="path"/>
</g>
<path d="M814.452 698.906C812.952 700.606 812.752 704.506 812.752 733.806C812.752 765.606 812.852 766.906 814.752 768.606C817.352 771.006 822.352 770.906 824.752 768.506C826.552 766.806 826.852 764.606 827.352 749.606C827.652 740.206 828.052 732.506 828.152 732.306C828.352 732.206 830.152 734.706 832.252 737.806C838.152 746.806 850.852 764.306 853.652 767.306C855.552 769.406 857.052 770.106 859.952 770.106C866.852 770.106 866.852 769.906 866.552 732.606C866.252 701.606 866.152 699.906 864.352 698.506C861.552 696.506 857.452 696.806 854.652 699.006C852.252 700.906 852.252 701.306 852.052 719.206C851.952 729.306 851.552 737.706 851.052 737.806C850.652 737.906 848.352 735.306 846.052 731.806C824.552 699.606 822.552 697.106 818.352 697.106C817.052 697.106 815.352 697.906 814.452 698.906Z" fill="#000000" fill-rule="nonzero" opacity="1" stroke="none" vectornator:layerName="path 1"/>
</g>
</svg>
